<svg t="1702263834031" class="icon" viewBox="0 0 1024 1024" version="1.1" xmlns="http://www.w3.org/2000/svg" p-id="1571" width="200" height="200"><path d="M796.458667 455.104v512h-56.896V227.541333H853.333333L512 0 170.666667 227.541333h113.770666v739.562667h-56.874666v-512H0V1024h1024V455.104H796.458667zM56.896 568.896H170.666667v56.896H56.896v-56.896z m0 113.770667H170.666667v56.853333H56.896V682.666667z m0 113.792H170.666667V853.333333H56.896v-56.874666z m455.125333-512a113.749333 113.749333 0 0 1 113.770667 113.749333A113.749333 113.749333 0 0 1 512 512a113.749333 113.749333 0 0 1-113.770667-113.770667A113.749333 113.749333 0 0 1 512 284.437333z m-113.770666 682.645333V682.666667h227.541333v284.437333H398.250667zM853.333333 568.896h113.770667v56.896H853.333333v-56.896zM853.333333 682.666667h113.770667v56.853333H853.333333V682.666667z m0 113.792h113.770667V853.333333H853.333333v-56.874666z" fill="#0a9413" p-id="1572"></path></svg>